<svg xmlns="http://www.w3.org/2000/svg" viewBox="0 0 3266.31 410.33"><defs><style>.cls-1{fill:#b030b0;}.cls-2{fill:#6cf;}</style></defs><title>Asset 31</title><g id="Layer_2" data-name="Layer 2"><g id="Layer_1-2" data-name="Layer 1"><path class="cls-1" d="M1556.61,387.11a102.21,102.21,0,0,1-40.37-42.28Q1502,317.5,1502,281.52V188.86q0-36,14.28-63.31a102.15,102.15,0,0,1,40.37-42.28q26.09-15,60.27-15t60.28,15a102.21,102.21,0,0,1,40.37,42.28q14.27,27.33,14.28,63.31v92.66q0,36-14.28,63.31a102.27,102.27,0,0,1-40.37,42.28q-26.1,15-60.28,14.95T1556.61,387.11Zm95.92-39.36a61.25,61.25,0,0,0,23.84-25.86q8.43-16.75,8.43-38.8v-95.8q0-22-8.43-38.8a61.25,61.25,0,0,0-23.84-25.86q-15.4-9.1-35.65-9.11t-35.64,9.11a61.25,61.25,0,0,0-23.84,25.86q-8.43,16.75-8.43,38.8v95.8q0,22.05,8.43,38.8a61.25,61.25,0,0,0,23.84,25.86q15.4,9.11,35.64,9.11T1652.53,347.75Z" transform="translate(0 -66.57)"/><path class="cls-1" d="M1801.52,71.46h45.88V398.69h-45.88Zm20,145.29h111.55a42.9,42.9,0,0,0,23.16-6.3,41.41,41.41,0,0,0,15.63-17.88q5.52-11.58,5.51-26.65t-5.51-26.65a41.68,41.68,0,0,0-15.51-17.88,42.89,42.89,0,0,0-23.28-6.3H1821.54V71.46h109.75q28.34,0,49.81,11.7a82,82,0,0,1,33.29,33.17q11.8,21.48,11.81,49.59t-11.92,49.59a82.68,82.68,0,0,1-33.4,33.17q-21.48,11.7-49.59,11.7H1821.54Zm89.06,33.51,45.65-10.35,83.67,158.78h-54.43Z" transform="translate(0 -66.57)"/><path class="cls-1" d="M2189.79,71.79h45.88v327h-45.88Zm31,283.38h74q36.21,0,56.12-18.78t19.9-53V187.17q0-34.18-19.9-53t-56.12-18.78h-74V71.79h72.64q39.36,0,67.25,13.72t42.5,40q14.63,26.33,14.62,63.43v92.65q0,37.11-14.62,63.42t-42.61,40q-28,13.71-67.36,13.71h-72.42Z" transform="translate(0 -66.57)"/><path class="cls-1" d="M2567.61,71.79h39.14l120.54,327h-49.48L2587.18,135l-90.63,263.8h-49.48Zm-65,211.63h172.05v43.63H2502.62Z" transform="translate(0 -66.57)"/><path class="cls-1" d="M2776.77,71.57h45.88V398.79h-45.88Zm20,145.28h111.55a42.93,42.93,0,0,0,23.17-6.29,41.54,41.54,0,0,0,15.63-17.88q5.51-11.58,5.51-26.65t-5.51-26.65a41.77,41.77,0,0,0-15.52-17.88,42.76,42.76,0,0,0-23.28-6.3H2796.78V71.57h109.75q28.33,0,49.82,11.69a82,82,0,0,1,33.28,33.18q11.8,21.48,11.81,49.59t-11.92,49.59a82.74,82.74,0,0,1-33.4,33.17q-21.48,11.7-49.59,11.69H2796.78Zm89.06,33.51L2931.5,240l83.66,158.77h-54.43Z" transform="translate(0 -66.57)"/><polygon class="cls-1" points="3056.31 5.33 3266.31 5.33 3266.31 49.34 3101.89 49.34 3101.89 148.03 3241.31 148.03 3241.31 191.34 3101.89 191.34 3101.89 288.6 3266.31 288.6 3266.31 332.33 3056.31 332.33 3056.31 5.33"/><rect class="cls-2" x="351.31" y="372.65" width="2548" height="37.69"/><path class="cls-1" d="M249.79,66.57h45.88V393.79H249.79Zm20,145.28H381.35a42.93,42.93,0,0,0,23.17-6.29,41.54,41.54,0,0,0,15.63-17.88q5.5-11.58,5.51-26.65t-5.51-26.65a41.77,41.77,0,0,0-15.52-17.88,42.76,42.76,0,0,0-23.28-6.3H269.8V66.57H379.55q28.33,0,49.82,11.69a82,82,0,0,1,33.28,33.18q11.81,21.48,11.81,49.59t-11.92,49.59a82.74,82.74,0,0,1-33.4,33.17q-21.48,11.7-49.59,11.69H269.8Zm89.06,33.51L404.52,235l83.66,158.77H433.75Z" transform="translate(0 -66.57)"/><path class="cls-1" d="M589.27,382.89Q563.52,368.61,550,341.28T536.53,275.5V66.79h45.88V277.07q0,35.76,18,55.33T651.23,352q33.06,0,51.16-19.56t18.11-55.33V66.79h45.88V275.5q0,38.46-13.5,65.78t-39.36,41.61q-25.86,14.28-62.29,14.28Q615,397.17,589.27,382.89Z" transform="translate(0 -66.57)"/><path class="cls-1" d="M797.86,66.79H1028.6v43.63H797.86Zm92.43,26.77h45.88V393.79H890.29Z" transform="translate(0 -66.57)"/><path class="cls-1" d="M1073.58,66.79h45.88v327h-45.88ZM1102.15,211h181.49v43.63H1102.15Zm157.2-144.16h45.88v327h-45.88Z" transform="translate(0 -66.57)"/><path class="cls-1" d="M0,68.1H230.74v43.63H0ZM92.43,94.87h45.88V395.1H92.43Z" transform="translate(0 -66.57)"/></g></g></svg>