<svg xmlns="http://www.w3.org/2000/svg" viewBox="0 0 3017.02 410.33"><defs><style>.cls-1{fill:#10559a;}.cls-2{fill:#db4c77;}.cls-3{fill:#fff;stroke:#fff;stroke-miterlimit:10;}</style></defs><title>Asset 14</title><g id="Layer_2" data-name="Layer 2"><g id="Layer_1-2" data-name="Layer 1"><path class="cls-1" d="M40.48,66.57H86.36V393.79H40.48Zm20,145.28H172.05a42.92,42.92,0,0,0,23.16-6.29,41.41,41.41,0,0,0,15.63-17.88q5.5-11.58,5.51-26.65t-5.51-26.65a41.7,41.7,0,0,0-15.52-17.88,42.75,42.75,0,0,0-23.27-6.3H60.5V66.57H170.25q28.33,0,49.81,11.69a82,82,0,0,1,33.29,33.18q11.81,21.48,11.8,49.59t-11.92,49.59a82.72,82.72,0,0,1-33.39,33.17q-21.48,11.7-49.59,11.69H60.5Zm89.06,33.51L195.21,235l83.66,158.77H224.45Z" transform="translate(-40.48 -66.57)"/><path class="cls-1" d="M380,382.89q-25.75-14.28-39.24-41.61t-13.5-65.78V66.79H373.1V277.07q0,35.76,18,55.33T441.92,352q33.06,0,51.17-19.56t18.1-55.33V66.79h45.88V275.5q0,38.46-13.49,65.78t-39.36,41.61q-25.86,14.28-62.3,14.28Q405.71,397.17,380,382.89Z" transform="translate(-40.48 -66.57)"/><path class="cls-1" d="M588.55,66.79H819.3v43.63H588.55ZM681,93.56h45.88V393.79H681Z" transform="translate(-40.48 -66.57)"/><path class="cls-1" d="M864.28,66.79h45.88v327H864.28ZM892.84,211h181.49v43.63H892.84ZM1050,66.79h45.88v327H1050Z" transform="translate(-40.48 -66.57)"/><path class="cls-1" d="M1347.31,387.11a102.14,102.14,0,0,1-40.37-42.28q-14.3-27.33-14.28-63.31V188.86q0-36,14.28-63.31a102.08,102.08,0,0,1,40.37-42.28q26.09-15,60.27-15t60.27,15a102.15,102.15,0,0,1,40.37,42.28q14.28,27.33,14.28,63.31v92.66q0,36-14.28,63.31a102.21,102.21,0,0,1-40.37,42.28q-26.08,15-60.27,14.95T1347.31,387.11Zm95.91-39.36a61.25,61.25,0,0,0,23.84-25.86q8.45-16.75,8.44-38.8v-95.8q0-22-8.44-38.8a61.25,61.25,0,0,0-23.84-25.86q-15.4-9.1-35.64-9.11t-35.65,9.11a61.32,61.32,0,0,0-23.84,25.86q-8.43,16.75-8.43,38.8v95.8q0,22.05,8.43,38.8a61.32,61.32,0,0,0,23.84,25.86q15.4,9.11,35.65,9.11T1443.22,347.75Z" transform="translate(-40.48 -66.57)"/><path class="cls-2" d="M1592.22,71.46h45.88V398.69h-45.88Zm20,145.29h111.55a42.94,42.94,0,0,0,23.17-6.3,41.54,41.54,0,0,0,15.63-17.88q5.51-11.58,5.51-26.65t-5.51-26.65a41.77,41.77,0,0,0-15.52-17.88,42.85,42.85,0,0,0-23.28-6.3H1612.23V71.46H1722q28.35,0,49.82,11.7a82,82,0,0,1,33.28,33.17q11.82,21.48,11.81,49.59T1805,215.51a82.68,82.68,0,0,1-33.4,33.17q-21.48,11.7-49.59,11.7H1612.23Zm89.06,33.51L1747,239.91l83.66,158.78h-54.43Z" transform="translate(-40.48 -66.57)"/><path class="cls-2" d="M1980.48,71.79h45.88v327h-45.88Zm31,283.38h74q36.21,0,56.11-18.78t19.9-53V187.17q0-34.18-19.9-53t-56.11-18.78h-74V71.79h72.64q39.35,0,67.24,13.72t42.51,40q14.61,26.33,14.62,63.43v92.65q0,37.11-14.62,63.42t-42.62,40q-28,13.71-67.36,13.71h-72.41Z" transform="translate(-40.48 -66.57)"/><path class="cls-2" d="M2358.31,71.79h39.13l120.54,327h-49.47L2377.87,135l-90.63,263.8h-49.48Zm-65,211.63h172.05v43.63H2293.31Z" transform="translate(-40.48 -66.57)"/><path class="cls-2" d="M2567.46,71.57h45.88V398.79h-45.88Zm20,145.28H2699a42.89,42.89,0,0,0,23.16-6.29,41.41,41.41,0,0,0,15.63-17.88q5.5-11.58,5.51-26.65t-5.51-26.65a41.7,41.7,0,0,0-15.52-17.88,42.75,42.75,0,0,0-23.27-6.3H2587.48V71.57h109.75q28.33,0,49.81,11.69a82,82,0,0,1,33.29,33.18q11.8,21.48,11.8,49.59t-11.92,49.59a82.72,82.72,0,0,1-33.39,33.17q-21.48,11.7-49.59,11.69H2587.48Zm89.06,33.51L2722.19,240l83.66,158.77h-54.42Z" transform="translate(-40.48 -66.57)"/><polygon class="cls-3" points="2806.52 5.33 3016.52 5.33 3016.52 49.34 2852.1 49.34 2852.1 148.03 2991.52 148.03 2991.52 191.34 2852.1 191.34 2852.1 288.6 3016.52 288.6 3016.52 332.33 2806.52 332.33 2806.52 5.33"/><rect class="cls-2" x="101.52" y="372.65" width="2548" height="37.69"/></g></g></svg>