<?xml version="1.0" encoding="utf-8"?>
<!-- Generator: Adobe Illustrator 23.0.1, SVG Export Plug-In . SVG Version: 6.00 Build 0)  -->
<svg version="1.1" id="Layer_1" xmlns="http://www.w3.org/2000/svg" xmlns:xlink="http://www.w3.org/1999/xlink" x="0px" y="0px"
	 viewBox="0 0 3523 410.3" style="enable-background:new 0 0 3523 410.3;" xml:space="preserve">
<style type="text/css">
	.st0{fill:#B030B0;}
	.st1{fill:#66CCFF;}
</style>
<g>
	<path class="st0" d="M2185.3,3.5h47.1v335.8h-47.1V3.5z M2217.1,294.5h76c24.8,0,44-6.4,57.6-19.3c13.6-12.9,20.4-31,20.4-54.4V122
		c0-23.4-6.8-41.5-20.4-54.4c-13.6-12.9-32.8-19.3-57.6-19.3h-76V3.5h74.6c26.9,0,50,4.7,69.1,14.1c19.1,9.4,33.6,23.1,43.7,41.1
		c10,18,15,39.7,15,65.1V219c0,25.4-5,47.1-15,65.1c-10,18-24.6,31.7-43.8,41.1c-19.2,9.4-42.2,14.1-69.2,14.1h-74.4V294.5z"/>
	<path class="st0" d="M2491,3.3h47.1v336H2491V3.3z M2511.6,152.5h114.6c8.9,0,16.9-2.2,23.8-6.5c6.9-4.3,12.3-10.4,16.1-18.4
		c3.8-7.9,5.7-17.1,5.7-27.4c0-10.3-1.9-19.4-5.7-27.4c-3.8-7.9-9.1-14-15.9-18.4c-6.9-4.3-14.8-6.5-23.9-6.5h-114.6V3.3h112.7
		c19.4,0,36.5,4,51.2,12c14.7,8,26.1,19.4,34.2,34.1c8.1,14.7,12.1,31.7,12.1,50.9c0,19.2-4.1,36.2-12.2,50.9
		c-8.2,14.7-19.6,26.1-34.3,34.1c-14.7,8-31.7,12-50.9,12h-112.7V152.5z M2603.1,186.9l46.9-10.6l85.9,163.1H2680L2603.1,186.9z"/>
	<path class="st0" d="M2846.5,339.3h-47.1V3.5h47.1V339.3z"/>
	<path class="st0" d="M2929.6,3.5h42.7l164.2,259.6l-5.5,6V3.5h46.7v335.6h-43.2L2970.7,83.4l5.5-6v261.7h-46.7V3.5z"/>
	<path class="st0" d="M3260.8,3.5h47.1v335.8h-47.1V3.5z M3297.8,192L3446.1,3.5h58l-213.2,259.1L3297.8,192z M3353.7,160.1
		l37.2-34.4l127.3,213.6h-57.7L3353.7,160.1z"/>
</g>
<title>Asset 31</title>
<path class="st0" d="M1556.6,320.5c-17.3-9.9-31.3-24.6-40.4-42.3c-9.5-18.2-14.2-39.3-14.2-63.3v-92.7c0-24,4.8-45.1,14.3-63.3
	c9.1-17.7,23.1-32.4,40.4-42.3c17.4-10,37.5-15,60.3-15c22.8,0,42.9,5,60.3,15c17.3,9.9,31.3,24.6,40.4,42.3
	c9.5,18.2,14.3,39.3,14.3,63.3V215c0,24-4.8,45.1-14.3,63.3c-9.1,17.7-23.1,32.4-40.4,42.3c-17.4,10-37.5,15-60.3,15
	C1594.1,335.5,1574,330.5,1556.6,320.5z M1652.5,281.2c10.3-6.1,18.6-15.1,23.8-25.9c5.6-11.2,8.4-24.1,8.4-38.8v-95.8
	c0-14.7-2.8-27.6-8.4-38.8c-5.2-10.8-13.5-19.8-23.8-25.9c-10.3-6.1-22.2-9.1-35.7-9.1s-25.4,3-35.6,9.1
	c-10.3,6.1-18.6,15.1-23.8,25.9c-5.6,11.2-8.4,24.1-8.4,38.8v95.8c0,14.7,2.8,27.6,8.4,38.8c5.2,10.8,13.5,19.8,23.8,25.9
	c10.3,6.1,22.1,9.1,35.6,9.1C1630.4,290.3,1642.3,287.3,1652.5,281.2z"/>
<path class="st0" d="M1801.5,4.9h45.9v327.2h-45.9V4.9z M1821.5,150.2h111.6c8.2,0.1,16.2-2,23.2-6.3c6.8-4.3,12.3-10.5,15.6-17.9
	c3.7-7.7,5.5-16.6,5.5-26.6s-1.8-18.9-5.5-26.6c-3.3-7.3-8.7-13.5-15.5-17.9c-7-4.3-15.1-6.5-23.3-6.3h-111.5V4.9h109.8
	c18.9,0,35.5,3.9,49.8,11.7c14.1,7.6,25.7,19.1,33.3,33.2c7.9,14.3,11.8,30.8,11.8,49.6s-4,35.3-11.9,49.6
	c-7.7,14.1-19.3,25.6-33.4,33.2c-14.3,7.8-30.8,11.7-49.6,11.7h-109.8L1821.5,150.2z M1910.6,183.7l45.7-10.4l83.7,158.8h-54.4
	L1910.6,183.7z"/>
<rect y="371.2" class="st1" width="3523" height="34.5"/>
<path class="st0" d="M249.8,0h45.9v327.2h-45.9V0z M269.8,145.3h111.6c8.2,0.1,16.2-2,23.2-6.3c6.8-4.3,12.3-10.5,15.6-17.9
	c3.7-7.7,5.5-16.6,5.5-26.6s-1.8-18.9-5.5-26.6c-3.3-7.3-8.7-13.5-15.5-17.9c-7-4.3-15.1-6.5-23.3-6.3H269.8V0h109.8
	c18.9,0,35.5,3.9,49.8,11.7c14.1,7.6,25.7,19.1,33.3,33.2c7.9,14.3,11.8,30.8,11.8,49.6s-4,35.3-11.9,49.6
	c-7.7,14.1-19.3,25.6-33.4,33.2c-14.3,7.8-30.9,11.7-49.6,11.7H269.8L269.8,145.3z M358.8,178.8l45.7-10.4l83.7,158.8h-54.4
	L358.8,178.8z"/>
<path class="st0" d="M589.3,316.3c-17.2-9.5-30.3-23.4-39.3-41.6c-9-18.2-13.5-40.1-13.5-65.8V0.2h45.9v210.3c0,23.8,6,42.3,18,55.3
	s28.9,19.6,50.8,19.6c22,0,39.1-6.5,51.2-19.6c12.1-13,18.1-31.5,18.1-55.3V0.2h45.9v208.7c0,25.6-4.5,47.6-13.5,65.8
	c-9,18.2-22.1,32.1-39.4,41.6c-17.2,9.5-38,14.3-62.3,14.3C627.1,330.6,606.4,325.8,589.3,316.3z"/>
<path class="st0" d="M797.9,0.2h230.7v43.6H797.9V0.2z M890.3,27h45.9v300.2h-45.9V27z"/>
<path class="st0" d="M1073.6,0.2h45.9v327h-45.9V0.2z M1102.2,144.4h181.5v43.6h-181.5V144.4z M1259.3,0.3h45.9v327h-45.9V0.3z"/>
<path class="st0" d="M0,1.5h230.7v43.6H0V1.5z M92.4,28.3h45.9v300.2H92.4V28.3z"/>
</svg>
